<?xml version="1.0" encoding="UTF-8" standalone="no"?><!DOCTYPE svg PUBLIC "-//W3C//DTD SVG 1.1//EN" "http://www.w3.org/Graphics/SVG/1.1/DTD/svg11.dtd"><svg width="100%" height="100%" viewBox="0 0 1042 1042" version="1.1" xmlns="http://www.w3.org/2000/svg" xmlns:xlink="http://www.w3.org/1999/xlink" xml:space="preserve" xmlns:serif="http://www.serif.com/" style="fill-rule:evenodd;clip-rule:evenodd;stroke-linejoin:round;stroke-miterlimit:2;"><path d="M276.333,458.75l0,12.875c0,43.75 89.583,81.333 244.75,81.333c135.958,0 242.792,-40.917 242.792,-81.333l0,-12.875c0,-27.75 -19.667,-43.25 -54.667,-58.792l-5.542,16.708c25.25,12.875 37.875,24.542 37.875,37.458c0,28.875 -84.167,63.333 -220.792,63.333c-125.542,0 -222.167,-36.667 -222.167,-61.875c0,-16.542 23.167,-33.5 63.042,-48.375l-12.958,-11.167c-45.708,14.875 -72.333,32.5 -72.333,62.708Z" style="fill:#7c2436;fill-rule:nonzero;"/><path d="M276.333,500.417l0,183.417c0,41.458 76.667,89.75 244.75,89.75c127.625,0 242.792,-41.458 242.792,-81l0,-30.292c-13.792,35.917 -93.125,87.875 -244.458,87.875c-131.458,0 -224.167,-39.292 -243.083,-83.042l0,-166.708Z" style="fill:#7c2436;fill-rule:nonzero;"/><path d="M281.792,507.5l29.25,175.375c-13.792,-10.125 -31.75,-24.5 -31.75,-44.958l2.5,-130.417Z" style="fill:#eda5b4;fill-rule:nonzero;"/><path d="M294.625,519.167l32.083,138.917l42.708,-107.708c-28.958,-8.625 -57.917,-19 -74.792,-31.208Z" style="fill:#eda5b4;fill-rule:nonzero;"/><path d="M387.958,557.5l56.958,151.333l64.333,-138.708c-45.292,-0.583 -88.375,-5.083 -121.292,-12.625Z" style="fill:#eda5b4;fill-rule:nonzero;"/><path d="M527.917,569.583l70.542,139.292l50.333,-151.333c-33.667,8.083 -74.542,11.458 -120.875,12.042Z" style="fill:#d4506a;fill-rule:nonzero;"/><path d="M670,552.917l45.375,113.375l30.5,-148.875c-17.708,14.542 -42.958,25.625 -75.875,35.5Z" style="fill:#d4506a;fill-rule:nonzero;"/><path d="M763.75,500.417l-34.958,182.708c14.667,-10.125 34.958,-25.625 34.958,-44.958l0,-137.75Z" style="fill:#d4506a;fill-rule:nonzero;"/><path d="M378.583,573.75l-44.708,119.792c25.583,13.583 59.125,22.333 100,26.833l-55.292,-146.625Z" style="fill:#eda5b4;fill-rule:nonzero;"/><path d="M521.25,578.333l-66.458,144.333c19.5,1.75 40.417,2.583 64.792,2l0,-146.333l1.667,0Z" style="fill:#eda5b4;fill-rule:nonzero;"/><path d="M521.25,578.333l64.333,143.042c-19.5,2.708 -41.542,3.583 -66,3.292l0,-146.333l1.667,0Z" style="fill:#d4506a;fill-rule:nonzero;"/><path d="M660.833,569.167l-54.25,151.125c40.875,-6.917 76.167,-17.417 103.042,-27.958l-48.792,-123.167Z" style="fill:#d4506a;fill-rule:nonzero;"/></svg>