<?xml version="1.0" encoding="UTF-8" standalone="no"?><!DOCTYPE svg PUBLIC "-//W3C//DTD SVG 1.1//EN" "http://www.w3.org/Graphics/SVG/1.1/DTD/svg11.dtd"><svg width="100%" height="100%" viewBox="0 0 1859 1050" version="1.1" xmlns="http://www.w3.org/2000/svg" xmlns:xlink="http://www.w3.org/1999/xlink" xml:space="preserve" xmlns:serif="http://www.serif.com/" style="fill-rule:evenodd;clip-rule:evenodd;stroke-linejoin:round;stroke-miterlimit:2;"><path d="M1850,266.667l0,516.667c0,142.578 -115.755,258.333 -258.333,258.333l-1325,0c-142.578,0 -258.333,-115.755 -258.333,-258.333l0,-516.667c0,-142.578 115.755,-258.333 258.333,-258.333l1325,0c142.578,0 258.333,115.755 258.333,258.333Z" style="fill:#e5e6ee;"/><path d="M1594.667,58.75c-119.542,1.917 -186.708,56.792 -280.958,81.125c-79.625,21.625 -130.542,-12.708 -117.583,-64.333c2.75,-11.292 12.583,-21.708 9.833,-22.958c-15.917,-7.208 -40.083,-11.917 -61.125,-6.083c-46.125,13.375 -75.167,57.458 -74.333,100.25c1.208,61.208 53.375,119.583 137.458,122.458c87.542,3.208 187.667,-60.625 277.417,-99.375c48,-18.333 80.5,-23.125 105.417,-20.875c74.875,7.333 121.5,57.792 122.292,129.917c1.167,88.083 -55.125,159.167 -146.792,186.167c-16.25,-31.25 -41.208,-76.042 -41.208,-106.75c0,-20.417 11.542,-28.667 19.542,-28.667c13.417,0 18.75,8.333 16.958,27.5c-0.833,9.5 -6.375,13.042 -5.292,15c4.458,8.583 15.042,6.042 19.208,5.208c32.458,-6.583 41.125,-34.875 39.75,-50.458c-4.042,-42.75 -35.167,-55.333 -72.292,-54.75c-58.917,1.042 -113.833,49.417 -114.25,116.333c-0.083,10.208 1.125,19.708 3.208,28.792c-15.167,17.25 -34.375,11.792 -53.958,6.958c7.417,-25.833 9.375,-50 7.5,-73.75c-3.333,-37.083 -22.708,-58.042 -50.5,-56.667c-42.958,2.125 -68.375,53.333 -65.333,101.958c1.958,28.708 12.792,50.417 20.917,61.333c-19.25,59.417 -40.458,98.792 -67.667,99.625c-18.25,0.542 -27.833,-18.875 -19.583,-64.417c8.542,-47 27.375,-95.083 24.875,-126.75c-2.792,-33.125 -26.958,-44.583 -50.583,-42.042c-19.625,2.083 -45.042,8.667 -50.875,29.5c-4.75,44.542 -31.958,193.083 -74.583,201.625c-19.917,4.167 -30.417,-13.958 -18.875,-58.5c14.833,-57 37.375,-96.083 33.875,-139.125c-3.333,-39.083 -30.25,-53.167 -71.375,-47.75c-19.625,2.542 -48.208,12.292 -48.75,24.583c-0.292,6.833 6.792,8.208 7.083,29.917c0.292,26.958 -11.833,82.125 -28.292,107.125c-37.417,57.542 -68.542,88.25 -125.125,88.25c-34.583,0 -45.417,-25 -47.083,-45.708c83.542,2.25 153.542,-55.042 154.917,-131.333c0.833,-49.917 -32.917,-80.625 -71.958,-79.5c-106.333,0 -198.292,114.542 -198.292,241.958c0,72.708 39.292,136.25 116.167,136.25c71.25,0 110.833,-30.958 158.542,-93.708c1.667,50.917 19.375,93.125 83.375,93.125c49.375,0 78.292,-41.625 102.625,-75.042c14,41.333 34.208,70.917 82.75,70.917c68,0 131.042,-87.542 173.667,-192.292c41.125,1.125 69.458,-12.375 88.833,-37.917c7.833,16.875 17.083,32.708 23.75,49.208c-68.292,22.25 -113.292,55.375 -114.125,133.333c-0.833,61.75 53.375,113.375 121.958,113.375c90.542,0 144.75,-71.333 143.917,-134.625c-0.542,-36.458 -12.375,-64.792 -23.375,-92.917c125.125,-32.083 221.333,-119.917 223.292,-236.25c1.667,-107.042 -78.542,-221.625 -224.958,-219.25Zm-774.875,306.25c16.208,0 19,12.583 17.333,26.25c-3.625,34.625 -37.375,66.833 -77.083,68.792c8.083,-43.042 31.708,-95.042 59.75,-95.042Zm641.5,259.792c-17.583,-2.542 -28.583,-15.917 -25.25,-32.167c5.042,-25 31.125,-36.583 54.875,-43.417c4.75,13.958 7.792,25.417 7.25,36.875c-1.417,25 -17.042,41.25 -36.875,38.708Z" style="fill:url(#_Linear1);fill-rule:nonzero;"/><path d="M1188.375,711.583c-134.583,0 -217.833,34.125 -315.583,66.625c-50.917,17.458 -93.125,20.792 -134.792,20.792c-108.583,0 -167.125,-55.208 -167.125,-152.792c0,-83.625 36.417,-179.5 68.333,-266.375c11.833,-32.167 15.75,-57.708 14.333,-86.458c-2.75,-52.417 -34.125,-92.083 -89.042,-91.25c-64,1.125 -119.875,54.667 -157.292,124.167c-3.333,6.708 -2.5,8.958 -2.5,8.958l-1.125,-3.625c-10,-74.833 -58,-138.958 -154.75,-137.292c-118.958,0 -205.583,94.833 -205.583,190.792c0,68.333 47.458,127.042 105.833,125.917c67.708,-1.375 102.833,-49.333 102.833,-87.167c0,-19.667 -6.417,-37.083 -13.083,-47.125c-2.5,-3.917 -5.833,-2.25 -10,1.125c-6.667,5.583 -11.125,8.083 -20.833,7.792c-25.542,-1.125 -46.917,-26.375 -46.917,-52.667c0,-42.458 37.417,-73.125 76.625,-73.125c47.333,0 69.833,32.375 69.833,84.542c0,60.667 -20.292,120.625 -49.167,192.5c-20.375,50.083 -31.208,77.833 -29.542,108.542c2.208,38.375 33.042,60.5 71.792,59.375c24.708,-0.542 45.792,-5.167 62.417,-25.125c3.875,-4.458 2.25,-9.5 1.417,-17.167c-7.5,-80.792 27.75,-208.792 78.917,-302.458c22.5,-40.625 45,-54.417 59.167,-54.417c17.167,0 22.167,16.292 21.083,34.292c-2.5,39.042 -20.083,76.333 -47.875,152.625c-23.333,65.375 -31.417,115.458 -30.583,178.458c1.667,109 97.875,244 288.375,244c119.542,0 189.25,-28.75 307.958,-42.417c29.708,-3.333 44.542,-4.167 65.208,-1.667c75.417,3.083 132.708,41.167 135.208,92.5c0.833,17.833 -8.083,32.875 -11.958,36.792c10.292,7 23.333,5.875 31.125,5.333c71.5,-4.5 129.083,-69.292 129.375,-131.292c1.375,-95.667 -76.75,-162.708 -202.083,-162.708Z" style="fill:url(#_Linear2);fill-rule:nonzero;"/><defs><linearGradient id="_Linear1" x1="0" y1="0" x2="1" y2="0" gradientUnits="userSpaceOnUse" gradientTransform="matrix(509.533333,857.086667,-857.086667,509.533333,853.466667,50.255)"><stop offset="0" style="stop-color:#5a5de8;stop-opacity:1"/><stop offset="1" style="stop-color:#5963df;stop-opacity:1"/></linearGradient><linearGradient id="_Linear2" x1="0" y1="0" x2="1" y2="0" gradientUnits="userSpaceOnUse" gradientTransform="matrix(509.535,857.086667,-857.086667,509.535,250.844167,194.2175)"><stop offset="0" style="stop-color:#5a5de8;stop-opacity:1"/><stop offset="1" style="stop-color:#5963df;stop-opacity:1"/></linearGradient></defs></svg>