<svg xmlns="http://www.w3.org/2000/svg" width="250" height="250" viewBox="0 0 250 250" fill="none">
<rect width="250" height="250" fill="#FEFFFE"/>
<path d="M 123.91,226 C 178.44,226 225.06,181.71 225.06,126.28 L 224.99,125.29 C 220.63,125.29 217.21,123.68 214.9,121.84 C 215.95,171.18 176.92,216.41 123.91,216.41 C 100.88,216.41 81.96,209.16 67.35,196.93 L 60.79,203.11 C 77.29,217.78 97.97,226 123.91,226 Z" fill="#996F00"/>
<path d="M 123.64,22 C 90.05,22 56.69,38.96 37.21,71.7 C 35.29,75.09 33.89,77.91 32.78,82.01 C 37.14,80.4 40.07,80.72 43.9,82.01 C 60.26,52.28 87.94,32.26 123.64,32.26 C 147.12,32.26 167.08,40.71 180.78,51.75 C 183.44,48.81 186.17,47.59 188.96,46.93 C 172.27,32.26 150.73,22 123.64,22 Z" fill="#996F00"/>
<path d="M 123.64,37.81 C 95.11,37.81 70.82,51.39 53.12,76.98 C 56.11,74.04 59.94,72.2 64.89,72.73 C 80.12,55.09 98.71,45.24 123.64,45.24 C 134.51,45.24 144.78,47.16 153.91,50.3 L 166.88,48.11 C 154.24,41.34 140.04,37.81 123.64,37.81 Z" fill="#DDB652"/>
<path d="M 235.75,51.75 C 227.13,51.75 222.12,50.63 213.76,50.43 C 209.13,50.33 206.41,54.36 205.81,55.61 C 202.11,51.16 197.95,50.04 193.13,50.1 C 186.91,50.17 182.09,54.76 180.04,58.09 C 178.43,54.03 175.17,52.28 171.21,52.48 C 165.06,52.78 157.23,53.97 155.35,54.43 C 152.02,55.28 150.14,56.77 148.53,58.95 C 146.65,56.77 144.13,55.75 140.81,55.95 C 134.38,56.34 132.24,61.26 130.96,64.66 C 128.24,60.2 125.65,59.35 121.82,59.68 C 114.86,60.27 112.07,65.78 111.06,68.98 C 107.87,66.41 105.72,65.78 102.63,65.85 C 98.13,65.98 92.45,67.76 88.22,70.14 C 82.93,73.05 80.14,79.17 80.88,86.4 L 82.76,104.1 L 82.22,113.69 L 76.34,86.07 C 74.73,80.29 70.83,76.46 64.82,76.92 C 57.86,77.45 53.76,83.13 52.35,89.71 L 47.26,123.96 L 46.45,118.71 L 48.47,97.7 C 49.14,90.61 45.98,85.35 38.95,85.61 C 31.19,85.91 27.93,92.43 26.25,96.71 C 23.53,94.14 20.81,93.42 17.92,93.62 C 9.95,94.21 5.06,101.44 5.74,111.76 C 6.41,122.08 8.73,128.46 8.13,143.91 C 7.66,156.81 6.11,163.71 6.11,168.63 C 6.11,176.12 9.71,180.91 14.93,180.71 C 23.29,180.38 27.12,173.74 28.6,168.82 C 30.48,173.02 34.14,172.69 36.8,172.42 C 42.95,171.83 47.12,167.24 48.73,162.32 C 50.61,162.78 52.22,162.72 53.36,162.58 C 60.72,161.66 64.55,155.15 65.83,147.85 C 67.71,150.42 70.03,150.95 72.18,150.88 C 78.87,150.62 83.17,146.86 85.62,141.41 C 87.23,142.83 88.84,143.29 90.72,143.16 C 97.01,142.7 101.04,138.71 103.22,133.92 C 105.61,135.63 107.02,135.83 109.17,135.7 C 116.73,135.04 120.06,129.66 120.73,123.4 C 123.22,127.36 126.82,128.65 130.15,128.51 C 138.91,128.12 142.67,121.71 144.55,105.02 L 145.97,112.08 C 147.45,117.93 152.08,121.82 158.91,121.03 L 168.92,119.42 C 174.9,118.33 178.36,116.15 180.78,112.28 C 184.88,116.74 189.21,118.39 194.76,117.99 C 206.95,117.14 211.48,107.22 211.28,97.9 C 211.08,89.45 207.15,83.13 202.75,79.11 C 205.41,78.32 207.15,76.73 208.16,74.62 C 210.11,76.07 213.09,75.84 215.11,74.95 C 215.72,83.13 214.37,92.09 213.16,103.24 C 212.15,112.97 217.13,121.22 226.12,121.55 C 233.75,121.84 237.65,115.04 237.18,108.34 C 236.51,99.22 233.62,93.16 233.82,75.15 C 236.31,77.13 238.26,76.99 239.94,75.94 C 244.43,73.19 245.04,68.6 244.97,64.4 C 244.77,57.27 240.94,51.75 235.75,51.75 Z M 27.53,120.1 L 26.86,120.23 L 27.59,113.23 C 28.74,113.36 28.67,117.33 27.53,120.1 Z M 27.59,146.86 L 26.92,142.14 C 27.12,140.75 27.73,139.96 28.47,139.83 C 28.74,141.28 28.47,144.12 27.59,146.86 Z M 112.74,102.32 C 114.02,100.51 114.89,98.76 115.43,96.91 L 119.73,116.94 L 116.23,114.16 L 111.33,103.24 C 111.6,102.98 112.27,102.78 112.74,102.32 Z M 166.47,73.71 L 167.68,73.58 C 167.75,74.23 167.41,74.69 166.47,74.82 V 73.71 Z M 166.47,96.38 L 166.14,96.11 L 167.01,95.72 C 167.28,96.11 167.01,96.31 166.47,96.38 Z" fill="#996F00"/>
<path d="M 27.93,135.96 C 23.73,136.75 22.05,139.96 22.72,147.65 L 24.34,161.99 C 25.14,169.15 20.81,176.05 15.06,176.25 C 11.13,176.38 9.25,171.93 9.65,164.7 C 10.12,156.25 11.8,149.63 10.66,133.59 C 9.85,121.68 8.04,114.22 8.91,107.03 C 9.65,100.91 13.78,97.64 17.45,97.7 C 21.41,97.77 22.79,100.25 22.32,107.35 L 21.21,118.78 C 20.81,123.17 22.12,123.56 24.2,123.3 C 28.87,122.71 29.94,117.86 29.21,112.15 C 28.27,104.56 27.12,96.91 31.59,91.93 C 34.31,88.79 44.16,86.01 44.83,95.92 C 45.24,102.04 41.71,114.22 43.19,129.66 C 44.13,139.96 46.52,146.93 46.11,153.05 C 45.64,160.34 40.91,166.19 35.02,166.19 C 31.09,166.19 30.28,162.32 30.82,154.83 L 32.23,142.21 C 32.77,137.15 31.36,135.37 27.93,135.96 Z" fill="#DDB652"/>
<path d="M 54.03,89.12 C 55.64,82.15 60.34,79.97 64.47,79.9 C 69.13,79.83 71.72,82.87 72.93,89.58 L 82.42,127.62 C 84.41,135.96 83.33,145.02 73.91,145.81 C 70.31,146.14 68.16,142.77 68.43,135.7 C 68.63,130.78 68.16,128.28 65.14,128.81 C 62.35,129.33 61.54,132.53 61.74,136.62 L 62.01,143.56 C 62.28,150.02 57.75,155.21 52.42,155.41 C 48.23,155.54 47.26,152.17 47.79,144.61 L 54.03,89.12 Z M 63.62,98.03 C 62.14,102.72 61.41,111.71 61.81,115.14 C 62.08,117.26 63.96,117.4 65.41,116.41 C 67.02,115.36 67.15,112.71 66.75,107.95 C 66.28,102.23 65.81,98.03 64.83,97.7 C 64.43,97.57 63.89,97.51 63.62,98.03 Z" fill="#DDB652"/>
<path d="M 84.24,85.02 C 83.43,77.92 86.16,74.04 93.52,71.53 C 97.79,70.08 103.67,68.73 107.37,70.94 C 114.86,75.29 115.87,92.76 107.97,101.9 L 112.81,114.15 C 114.96,115.6 117.01,116.94 116.94,121.09 C 116.81,126.97 113.61,130.71 108.85,130.91 C 104.75,131.04 103.61,128.4 102.53,120.43 L 101.32,111.65 C 101.05,109.53 98.73,108.54 98.06,111.05 C 97.19,114.35 98.93,121.48 99.34,126.11 C 99.87,132.66 96.41,138.38 90.26,138.71 C 85.04,138.97 84.44,133.65 85.24,126.25 L 86.79,106.14 L 84.24,85.02 Z M 97.12,85.22 C 96.18,88.92 96.18,94.87 97.12,96.91 C 97.79,98.43 99.67,97.7 100.61,95.33 C 102.29,90.91 102.09,85.42 100.21,83.34 C 98.93,81.88 97.66,82.81 97.12,85.22 Z" fill="#DDB652"/>
<path d="M 147.86,68.26 L 141.14,110.13 C 139.66,118.65 136.13,124.23 129.95,123.96 C 125.82,123.83 124.27,120.82 123.26,113.82 L 116.03,74.89 C 114.96,69.01 117.92,64.59 122.83,64.46 C 127.09,64.33 128.44,67.33 128.31,74.83 C 128.04,86.14 129.25,97.44 129.92,103.12 C 130.12,104.83 131.46,104.37 131.73,102.85 C 132.81,96.71 134.22,84.63 133.34,70.15 C 132.94,63.96 136.13,60.01 141.42,60.01 C 146.08,60.01 148.74,63.04 147.86,68.26 Z" fill="#DDB652"/>
<path d="M 149.21,68.26 C 148.33,62.25 151.35,57.76 156.43,57.23 L 169.13,55.75 C 174.09,55.15 175.37,57.63 175.57,63.04 C 175.77,68.06 174.36,71.27 170.66,70.74 C 168.35,70.41 168.01,68.46 165.46,68.46 C 162.07,68.46 161.19,71.86 161.53,77.05 C 161.73,79.96 163.14,80.03 166.27,78.84 C 168.92,77.78 170.87,77.72 172.08,79.9 C 173.83,83.2 173.76,89.71 171.41,91.96 C 169.46,93.81 167.61,91.37 165.06,91.24 C 162.27,91.11 162.07,92.82 162.07,96.25 C 162.07,99.29 163.81,100.15 166.47,99.49 C 169.26,98.76 170.27,95.66 173.02,95.33 C 176.99,94.87 177.93,99.22 177.32,105.61 C 176.52,113.43 171.75,116.34 163.21,117.53 L 158.81,118.12 C 152.15,119.05 148.46,115.62 148.66,108.12 L 150.68,90.44 L 149.21,68.26 Z" fill="#DDB652"/>
<path d="M 180.04,68.85 C 180.71,59.15 187.11,53.21 195.27,53.7 C 203.03,54.16 206.35,59.22 206.49,67.13 C 206.62,72.46 204.67,74.83 201.21,74.44 C 198.15,74.04 197.01,71.73 196.61,68.46 C 196.34,66.31 192.95,66.05 192.35,68.66 C 191.47,72.52 194.87,76.41 199.23,79.44 C 206.02,84.16 208.91,89.71 208.91,98.23 C 208.91,107.55 203.82,114.48 194.13,114.48 C 184.71,114.48 179.77,105.55 179.57,98.3 C 179.44,92.62 182.83,88.06 187.16,88.26 C 189.62,88.39 190.97,89.71 191.47,93.15 C 191.94,96.45 193.76,97.51 194.97,97.04 C 197.15,96.18 196.14,91.03 191.41,86.61 C 184.91,80.56 179.44,77.19 180.04,68.85 Z" fill="#DDB652"/>
<path d="M 210.01,60.93 C 210.41,55.81 212.16,53.63 216.22,54.03 C 222.11,54.62 226.04,54.89 234.73,55.02 C 239.13,55.09 240.94,57.63 241.08,64.26 C 241.21,70.01 238.93,73.25 236.71,72.92 C 234.63,72.59 234.23,70.01 232.75,68.33 C 231.13,66.38 230.12,68.26 230.06,72.13 C 229.72,87.47 230.06,90.71 233.22,105.05 C 234.83,112.34 231.74,117.66 226.52,117.4 C 220.09,117.07 217.13,111.68 218.21,102.36 C 219.56,90.24 220.43,84.76 219.69,71.07 C 219.49,67.54 217.61,66.81 215.82,68.33 C 214.68,69.32 213.94,70.08 212.69,69.72 C 210.21,68.92 209.6,65.25 210.01,60.93 Z" fill="#DDB652"/>
<path d="M 36.73,174.6 C 43.02,185.91 48.93,193.98 57.29,200.43 C 66.31,190.64 75.06,183.64 81.96,180.04 C 87.22,184.36 90.65,185.91 96.04,185.52 C 101.86,185.12 108.85,181.16 115.35,179.11 C 111.46,178.85 108.03,178.78 105.14,177.07 C 108.84,177.33 115.27,177.73 120.67,174.13 C 125.27,172.95 131.09,171.93 136.74,169.15 L 134.42,167.64 C 139.94,168.23 145.72,166.85 153.15,165.1 L 150.43,163.12 C 155.22,163.91 158.58,163.58 165.74,161.2 L 163.28,159.22 C 167.21,160.34 168.49,160.21 172.15,159.35 L 194.13,153.64 L 177.05,154.63 L 175.31,151.07 L 200.81,144.68 L 186.23,146.13 L 188.41,142.14 L 209.94,135.5 L 186.23,138.25 L 180.84,135.04 L 196.95,130.06 L 176.25,132.6 L 173.36,129.82 L 187.74,123.97 L 166.88,127.1 C 162.48,127.83 158.51,129.81 156.02,132.12 L 158.11,127.1 L 151.68,129.61 C 146.85,130.96 143.12,132.94 140.33,135.96 L 142.85,130.71 L 136.19,133.26 C 132.13,134.71 128.81,136.95 126.29,139.96 L 125.14,135.63 L 116.98,139.83 C 112.91,141.74 110.12,143.82 109.05,146.86 L 109.38,142.01 L 101.75,146.46 C 97.92,148.64 96.04,150.22 95.31,153.32 L 95.71,148.24 C 83.74,155.61 78.87,161.93 79.34,174.86 C 71.85,179.25 66.69,182.98 59.87,188.86 C 54.61,183.64 50.55,178.72 46.62,170.61 C 44.03,172.95 41.14,174.27 36.73,174.6 Z" fill="#996F00"/>
<path d="M 124.68,211.15 C 122.63,196.81 132.24,187.05 145.14,186.46 C 156.36,185.93 164.46,191.25 167.95,199.77 C 156.09,207.61 143.46,211.01 124.68,211.15 Z" fill="#DDB652"/>
<path d="M 92.72,190.45 L 107.37,188.74 L 124.13,198.06 L 122.15,201.86 L 92.72,190.45 Z" fill="#DDB652"/>
<path d="M 86.62,202.32 L 121.14,205.62 V 211.14 C 107.23,210.48 97.72,207.61 86.62,202.32 Z" fill="#DDB652"/>
<path d="M 116.44,184.1 L 121.76,181.56 L 128.72,189.25 L 125.15,192.92 L 116.44,184.1 Z" fill="#DDB652"/>
<path d="M 127.71,178.45 L 133.62,176.21 L 137.55,185.05 L 133.62,187.03 L 127.71,178.45 Z" fill="#DDB652"/>
<path d="M 140.94,172.95 L 147.05,172.16 L 146.45,182.95 L 142.28,183.28 L 140.94,172.95 Z" fill="#DDB652"/>
<path d="M 153.23,169.15 L 161.06,167.11 L 155.67,184.43 L 151.21,182.95 L 153.23,169.15 Z" fill="#DDB652"/>
<path d="M 172.82,163.71 L 185.72,160.74 L 165.67,188.63 L 161.07,187.05 L 172.82,163.71 Z" fill="#DDB652"/>
<path d="M 168.02,193.12 L 200.13,165.76 C 193.95,177.47 184.27,189.52 170.33,198.45 L 168.02,193.12 Z" fill="#DDB652"/>
<path d="M 82.49,174.13 C 82.02,163.38 84.04,159.02 92.86,154.3 C 93.93,164.77 93.33,167.41 82.49,174.13 Z" fill="#DDB652"/>
<path d="M 97.72,166.58 C 98.93,156.25 99.47,151.33 108.37,146.92 C 109.45,157.97 107.9,160.74 97.72,166.58 Z" fill="#DDB652"/>
<path d="M 112.41,158.63 C 113.28,148.71 115.36,144.68 124.21,140.75 C 124.88,150.22 122.63,154.43 112.41,158.63 Z" fill="#DDB652"/>
<path d="M 125.75,153.18 C 127.43,143.92 130.96,138.97 138.72,136.26 C 138.25,145.01 135.53,150.22 125.75,153.18 Z" fill="#DDB652"/>
<path d="M 140.54,148.31 C 142.28,139.11 145.81,135.11 153.64,133.13 C 153.17,141.14 149.71,146.26 140.54,148.31 Z" fill="#DDB652"/>
<path d="M 154.71,143.75 C 158.04,135.04 161.13,132.07 167.41,130.15 C 166.94,137.28 163.75,141.34 154.71,143.75 Z" fill="#DDB652"/>
<path d="M 166.81,143.16 C 173.83,137.61 177.66,136.82 184.13,138.64 C 181.11,144.42 175.71,146.66 166.81,143.16 Z" fill="#DDB652"/>
<path d="M 164.02,146.73 C 170.27,147.19 172.08,149.9 174.84,154.36 C 167.08,155.94 163.15,152.77 157.23,146.73 C 159.11,146.2 160.93,146.46 164.02,146.73 Z" fill="#DDB652"/>
<path d="M 148.33,150.03 C 154.72,149.43 157.24,153.32 160.73,158.11 C 152.83,159.75 148.06,157.44 139.97,150.03 C 142.49,149.37 144.94,149.76 148.33,150.03 Z" fill="#DDB652"/>
<path d="M 132.94,155.15 C 138.99,154.62 140.34,157.72 144.47,162.71 C 137.51,164.23 133.81,162.32 127.16,156.8 C 128.71,155.75 130.26,155.41 132.94,155.15 Z" fill="#DDB652"/>
<path d="M 120.74,160.74 C 127.03,160.74 128.31,163.64 133.21,168.36 C 124.48,170.41 120.14,168.82 112.14,162.71 C 114.29,161.13 116.54,160.74 120.74,160.74 Z" fill="#DDB652"/>
<path d="M 108.11,166.58 C 114.83,166.19 116.91,169.75 120.84,173.28 C 112.14,175.33 107.23,174.27 100.01,168.82 C 102.22,167.31 104.41,166.85 108.11,166.58 Z" fill="#DDB652"/>
<path d="M 93.33,173.94 C 100.05,173.35 102.13,176.61 106.69,179.91 C 97.73,184.03 91.98,183.01 85.15,177.53 C 87.03,175.92 89.11,174.66 93.33,173.94 Z" fill="#DDB652"/>
</svg>