<?xml version="1.0" encoding="UTF-8" standalone="no"?><!DOCTYPE svg PUBLIC "-//W3C//DTD SVG 1.1//EN" "http://www.w3.org/Graphics/SVG/1.1/DTD/svg11.dtd"><svg width="100%" height="100%" viewBox="0 0 1042 1042" version="1.1" xmlns="http://www.w3.org/2000/svg" xmlns:xlink="http://www.w3.org/1999/xlink" xml:space="preserve" xmlns:serif="http://www.serif.com/" style="fill-rule:evenodd;clip-rule:evenodd;stroke-linejoin:round;stroke-miterlimit:2;"><rect x="0" y="0" width="1041.667" height="1041.667" style="fill:#fefffe;"/><path d="M569.708,94.083c138.25,13.5 261.417,101.125 340.792,249.333l-23.875,18.083c-65.333,-129.125 -171.125,-204.25 -294.458,-227.5l-22.458,-39.917Z" style="fill:#8e6700;fill-rule:nonzero;"/><path d="M105.167,399.375c47.833,-152.5 182.208,-284.583 362.667,-305.292l-22.5,30.583c-143.625,22.333 -267.083,129.125 -309.583,278.75l-30.583,-4.042Z" style="fill:#8e6700;fill-rule:nonzero;"/><path d="M162.542,403.417c29.292,-98.625 92.083,-158.792 131.25,-189.375c23.167,24.542 19,66 48.292,118.417c29.292,52.375 66.542,70.958 110.667,81.333c-21.25,3.542 -39.792,13.958 -52.25,32.292c-45.917,-26.458 -83.5,-22.167 -133.583,-14.125l-20.625,2.083c-22.708,-28.667 -45.5,-32.667 -83.75,-30.625Z" style="fill:#d8b04a;fill-rule:nonzero;"/><path d="M606.75,153.083c92.042,14.708 204.958,79.042 259.042,203.75c-39.375,-8.25 -74.583,4.083 -101.417,32.75c-52,-22.458 -114.333,-12.208 -162.042,24.042l-16.458,-8.292c43.75,-18.417 68.792,-52.458 74.75,-91.833c9.375,-60.542 -16.583,-104 -53.875,-160.417Z" style="fill:#d8b04a;fill-rule:nonzero;"/><path d="M434.958,151.042l-12.458,18.583l-33.042,-4.125l45.5,-14.458Z" style="fill:#8e6700;fill-rule:nonzero;"/><path d="M162.458,807.042c83,113.667 196.667,186.375 355.083,186.375c115.75,0 209.458,-41.417 298.625,-120.25c-6.542,-9.083 -10.417,-17.375 -10.417,-26.708c-82.958,82.917 -170.042,124.333 -288.208,124.333c-142.917,0 -256.667,-66.417 -333.375,-186.667l-21.708,22.917Z" style="fill:#8e6700;fill-rule:nonzero;"/><path d="M202.875,784.292c74.667,93.25 170,161.5 314.667,161.583c116.083,0 213.542,-47.708 277.917,-118.208c-31.042,-20.625 -101.583,-16.458 -149.333,-4c-76.708,14.5 -97.333,20.75 -143,20.75c-68.458,0 -113.958,-16.625 -169.75,-60.125c-35.208,22.75 -95.375,28.958 -130.5,0Z" style="fill:#d8b04a;fill-rule:nonzero;"/><path d="M519.625,44.083c33.125,78.792 95.417,132.708 116.083,188.667c31.042,87 -10.333,149.25 -91.208,171.958l0,16.583c22.708,-2.083 37.25,4.167 51.792,20.75c24.792,-39.375 74.625,-49.75 107.75,-49.75c24.792,0 43.5,6.208 62.25,16.583c16.583,-35.208 47.625,-47.667 76.583,-47.667c20.625,0 37.25,8.292 45.583,22.792c16.625,-26.875 41.417,-31.042 68.292,-31.042c33.125,0 57.917,33.083 59.875,62.083c2.375,35.875 -14.375,68.625 -12.333,134.917c2.083,66.333 12.458,87 12.333,115.958c-0.167,33.083 -22.625,62.042 -61.958,60c-10.417,-0.542 -15.042,-2.083 -22.708,-2.083c16.458,20.625 24.792,37.25 22.708,64.125c-4.167,47.708 -47.708,85 -93.25,85c-24.792,0 -39.333,-22.75 -39.333,-39.333c0,-16.625 -39.333,-39.333 -122.292,-39.333c-70.542,0 -128.5,33.083 -215.583,33.083c-70.542,0 -114.083,-24.792 -149.25,-78.708c-18.542,22.75 -41.25,31.042 -72.292,31.042c-41.375,0 -64.083,-31.042 -59.917,-70.417c1.667,-16.042 4.375,-24.708 6.25,-55.875c-14.542,14.542 -27,14.542 -53.875,10.375c6.25,35.208 12.5,49.667 12.5,74.5c0,43.5 -43.542,76.625 -84.958,76.625c-41.417,0 -58.042,-39.375 -58.042,-70.417c0,-37.25 12.375,-60 12.375,-134.667c0,-45.583 -14.458,-80.792 -12.375,-128.5c1.667,-37.25 24.542,-64.167 59.708,-64.167c24.792,0 35.292,8.292 68.417,4.125c45.625,-6.25 70.417,0 91.083,22.708c22.708,-8.292 41.417,-10.208 70.375,-10.208c37.25,0 64.125,8.292 91,28.958c12.458,-33.125 37.25,-33.125 70.375,-37.292l43.542,-6.25l0,-20.708c-80.875,2.083 -139,-22.75 -170.042,-87.083c-16.583,-35.208 -20.75,-68.333 -39.458,-113.958c28.958,-12.458 72.458,-10.417 118.042,-4.167c37.25,-49.75 67.167,-95.333 91.958,-149.208Z" style="fill:#8e6700;fill-rule:nonzero;"/><path d="M519.625,91.75c35.208,62.25 91.25,120.292 99.583,170.042c10.417,58.042 -20.625,97.417 -74.583,114c2.083,-70.542 -26.875,-141.083 -95.333,-176.292c28.958,-39.375 53.75,-72.5 70.333,-107.75Z" style="fill:#d8b04a;fill-rule:nonzero;"/><path d="M346.917,211.958c93.292,-6.25 185.125,24.792 178.958,151.333l-33.125,-49.75l-10.417,-62.25l-8.292,45.625l-91.25,-64.333l39.375,37.292l-33.125,4.125l60.167,10.417l24.792,33.125l-62.25,2.083l64.333,12.458l33.125,41.417c-82.917,-2.042 -118.125,-24.792 -136.833,-80.75c-10.417,-31.042 -13.042,-51.833 -25.458,-80.792Z" style="fill:#8e6700;fill-rule:nonzero;"/><path d="M565.25,211.958c22.708,24.792 35.167,51.667 33.083,80.625c-1.125,16.625 -12.458,33.25 -24.917,33.25c-10.417,0 -18.75,-12.458 -12.5,-27c7.375,-18.042 20.833,-28.958 4.333,-86.875Z" style="fill:#fefffe;fill-rule:nonzero;"/><path d="M80.208,439.875c24.792,0 43.333,8.292 70.208,8.292c24.792,0 55.833,-10.375 62.042,29c3.75,24 -4.083,45.625 -20.708,45.625c-18.542,0 -24.625,-14.417 -51.5,-14.417c-20.625,0 -24.792,62.25 -12.333,64.333c14.417,2.417 16.5,-4.167 37.125,-8.333c20.625,-4.125 28.958,8.333 28.958,33.125c0,20.625 -12.458,31 -22.875,31c-16.458,0 -24.75,-6.208 -35.167,-4.125c-18.542,3.75 -16.333,24.917 -5.958,64.292c6.917,27.083 5.958,33.083 5.958,41.375c0,31.042 -37.25,47.625 -55.792,47.625c-28.958,0 -35.167,-22.75 -33.083,-53.792c2.042,-31.042 12.458,-62.083 8.292,-126.417c-3.333,-53.875 -14.5,-74.542 -10.375,-118.042c2.083,-20.792 12.458,-39.542 35.208,-39.542Z" style="fill:#d8b04a;fill-rule:nonzero;"/><path d="M252.125,479.25c24.792,-8.292 41.417,-8.292 66.208,-8.292c56,0 78.75,31.042 78.75,66.25c0,26.875 -12.458,45.583 -33.125,66.25l24.792,58.042c24.792,47.708 47.5,78.75 109.792,78.75c51.917,0 101.708,-24.792 197.167,-37.25c78.792,-10.917 114,-6.292 157.542,4.125c45.583,11.708 68.292,33.125 68.292,70.417c0,35.208 -33.083,62.083 -66.208,62.083c-2.083,0 -6.208,-2.083 -6.208,-12.458c0,-41.417 -51.875,-68.292 -130.667,-68.292c-89.167,0 -120.208,18.667 -201.083,31.083c-68.458,8.708 -118.208,-4.083 -157.583,-51.792c-22.75,-26.875 -29,-60 -37.292,-95.208c-3.292,-13.833 -20.792,-16.542 -24.917,-2.042c-3.625,13.333 8.292,41.417 8.292,62.083c0,26.875 -26.875,37.25 -53.75,37.25c-24.792,0 -28.958,-18.667 -28.958,-37.25c0,-26.875 12.458,-51.667 12.458,-91.042c0,-39.375 -12.458,-57.958 -12.458,-89c0,-22.75 10.417,-37.458 28.958,-43.708Z" style="fill:#d8b04a;fill-rule:nonzero;"/><path d="M312.125,522.792c18.542,-4.167 24.792,12.458 22.708,31.042c-2.417,18.583 -18.542,31.208 -28.917,31.208c-10.417,0 -14.208,-4.167 -14.208,-26.875c0,-16.625 1.833,-31.208 20.417,-35.375Z" style="fill:#8e6700;fill-rule:nonzero;"/><path d="M467.625,454.333c24.792,-4.167 45.417,-6.25 72.292,-10.375c24.792,-3.875 37.25,4.125 37.25,31.042c0,20.625 -8.292,31 -20.792,31c-16.458,0 -20.5,-8.292 -41.125,-8.292c-20.625,0 -24.792,18.583 -22.708,35.208c2.083,12.458 10.375,10.542 16.583,8.458c16.458,-5 20.625,-8.333 33.083,-8.333c14.542,0 18.708,18.708 14.542,35.333c-4.167,16.583 -12.458,20.75 -20.792,20.75c-12.458,0 -14.542,-4.167 -24.958,-4.167c-16.167,0 -20.542,10.375 -20.542,26.958c0,12.458 8.292,16.583 18.667,16.583c22.708,0 26.833,-18.667 51.625,-18.667c20.625,0 28.958,14.542 26.875,39.333c-3.083,34.625 -26.708,45.542 -115.875,55.917c-41.417,4.833 -49.75,-14.5 -47.667,-43.458c1.667,-22.708 8.333,-45.458 8.333,-80.667c0,-33.125 -8.333,-53.75 -8.333,-78.542c0,-29.375 18.75,-43.917 43.542,-48.083Z" style="fill:#d8b04a;fill-rule:nonzero;"/><path d="M701.958,417.167c33.125,0 60,16.625 62.083,45.583c1.25,18.583 -16.458,35.208 -35.208,31.042c-16.458,-3.75 -16.458,-20.75 -26.875,-20.75c-16.458,-4.167 -26.875,8.292 -24.792,20.75c4.167,22.75 35.208,20.667 64.167,45.458c24.792,16.625 33.125,33.25 33.125,58.042c0,47.708 -41.458,80.833 -93.333,80.833c-45.583,0 -80.792,-20.667 -80.792,-57.917c0,-24.833 20.625,-45.458 43.333,-45.458c16.625,0 18.708,8.292 18.708,18.667c0,10.375 8.333,14.542 18.75,12.458c14.542,-3.083 20.833,-16.708 12.5,-29.167c-18.542,-24.792 -51.667,-24.792 -70.375,-45.417c-14.583,-14.75 -16.667,-29.167 -14.583,-47.875c6.25,-41.458 41.417,-66.25 93.292,-66.25Z" style="fill:#d8b04a;fill-rule:nonzero;"/><path d="M832.458,396.417c26.875,-6.208 35.208,8.292 35.208,33.083c0,22.75 -8.333,33.125 -8.333,53.917c0,14.542 8.333,18.708 20.792,16.625c20.625,-2.5 27.042,-14.542 24.958,-33.25c-4.167,-26.875 -6.25,-31.042 -4.167,-47.625c4.167,-28.958 20.625,-43.5 55.833,-45.583c22.708,-1.375 33.125,20.792 33.125,43.542c0,31.042 -14.583,53.792 -14.583,116.042c0,70.5 10.417,91.167 12.5,124.292c1.667,24.792 -14.417,33.083 -35.208,33.083c-28.958,0 -49.583,-20.625 -49.583,-45.417c0,-28.958 8.333,-45.583 8.333,-70.375c0,-16.583 -12.5,-24.917 -27.042,-22.833c-16.625,2.083 -22.875,12.458 -22.875,29.083c0,26.875 8.333,39.333 8.333,64.125c0,22.708 -16.625,33.083 -33.125,33.083c-35.208,0 -45.583,-18.667 -45.583,-47.625c0,-31.042 10.375,-53.792 8.292,-103.542c-2.083,-47.708 -12.458,-62.208 -8.292,-93.25c2.083,-20.792 16.625,-33.208 41.417,-37.375Z" style="fill:#d8b04a;fill-rule:nonzero;"/></svg>