<?xml version="1.0" encoding="UTF-8" standalone="no"?><!DOCTYPE svg PUBLIC "-//W3C//DTD SVG 1.1//EN" "http://www.w3.org/Graphics/SVG/1.1/DTD/svg11.dtd"><svg width="100%" height="100%" viewBox="0 0 1042 1042" version="1.1" xmlns="http://www.w3.org/2000/svg" xmlns:xlink="http://www.w3.org/1999/xlink" xml:space="preserve" xmlns:serif="http://www.serif.com/" style="fill-rule:evenodd;clip-rule:evenodd;stroke-linejoin:round;stroke-miterlimit:2;"><path d="M516.292,941.667c227.208,0 421.458,-184.542 421.458,-415.5l-0.292,-4.125c-18.167,0 -32.417,-6.708 -42.042,-14.375c4.375,205.583 -158.25,394.042 -379.125,394.042c-95.958,0 -174.792,-30.208 -235.667,-81.167l-27.333,25.75c68.75,61.125 154.917,95.375 263,95.375Z" style="fill:#996f00;fill-rule:nonzero;"/><path d="M515.167,91.667c-139.958,0 -278.958,70.667 -360.125,207.083c-8,14.125 -13.833,25.875 -18.458,42.958c18.167,-6.708 30.375,-5.375 46.333,0c68.167,-123.875 183.5,-207.292 332.25,-207.292c97.833,0 181,35.208 238.083,81.208c11.083,-12.25 22.458,-17.333 34.083,-20.083c-69.542,-61.125 -159.292,-103.875 -272.167,-103.875Z" style="fill:#996f00;fill-rule:nonzero;"/><path d="M515.167,157.542c-118.875,0 -220.083,56.583 -293.833,163.208c12.458,-12.25 28.417,-19.917 49.042,-17.708c63.458,-73.5 140.917,-114.542 244.792,-114.542c45.292,0 88.083,8 126.125,21.083l54.042,-9.125c-52.667,-28.208 -111.833,-42.917 -180.167,-42.917Z" style="fill:#ddb652;fill-rule:nonzero;"/><path d="M982.292,215.625c-35.917,0 -56.792,-4.667 -91.625,-5.5c-19.292,-0.417 -30.625,16.375 -33.125,21.583c-15.417,-18.542 -32.75,-23.208 -52.833,-22.958c-25.917,0.292 -46,19.417 -54.542,33.292c-6.708,-16.917 -20.292,-24.208 -36.792,-23.375c-25.625,1.25 -58.25,6.208 -66.083,8.125c-13.875,3.542 -21.708,9.75 -28.417,18.833c-7.833,-9.083 -18.333,-13.333 -32.167,-12.5c-26.792,1.625 -35.708,22.125 -41.042,36.292c-11.333,-18.583 -22.125,-22.125 -38.083,-20.75c-29,2.458 -40.625,25.417 -44.833,38.75c-13.292,-10.708 -22.25,-13.333 -35.125,-13.042c-18.75,0.542 -42.417,7.958 -60.042,17.875c-22.042,12.125 -33.667,37.625 -30.583,67.75l7.833,73.75l-2.25,39.958l-24.5,-115.083c-6.708,-24.083 -22.958,-40.042 -48,-38.125c-29,2.208 -46.083,25.875 -51.958,53.292l-21.208,142.708l-3.375,-21.875l8.417,-87.542c2.792,-29.542 -10.375,-51.458 -39.667,-50.375c-32.333,1.25 -45.917,28.417 -52.917,46.25c-11.333,-10.708 -22.667,-13.708 -34.708,-12.875c-33.208,2.458 -53.583,32.583 -50.75,75.583c2.792,43 12.458,69.583 9.958,133.958c-1.958,53.75 -8.417,82.5 -8.417,103c0,31.208 15,51.167 36.75,50.333c34.833,-1.375 50.792,-29.042 56.958,-49.542c7.833,17.5 23.083,16.125 34.167,15c25.625,-2.458 43,-21.583 49.708,-42.083c7.833,1.917 14.542,1.667 19.292,1.083c30.667,-3.833 46.625,-30.958 51.958,-61.375c7.833,10.708 17.5,12.917 26.458,12.625c27.875,-1.083 45.792,-16.75 56,-39.458c6.708,5.917 13.417,7.833 21.25,7.292c26.208,-1.917 43,-18.542 52.083,-38.5c9.958,7.125 15.833,7.958 24.792,7.417c31.5,-2.75 45.375,-25.167 48.167,-51.25c10.375,16.5 25.375,21.875 39.25,21.292c36.5,-1.625 52.167,-28.333 60,-97.875l5.917,29.417c6.167,24.375 25.458,40.583 53.917,37.292l41.708,-6.708c24.917,-4.542 39.333,-13.625 49.417,-29.75c17.083,18.583 35.125,25.458 58.25,23.792c50.792,-3.542 69.667,-44.875 68.833,-83.708c-0.833,-35.208 -17.208,-61.542 -35.542,-78.292c11.083,-3.292 18.333,-9.917 22.542,-18.708c8.125,6.042 20.542,5.083 28.958,1.375c2.542,34.083 -3.083,71.417 -8.125,117.875c-4.208,40.542 16.542,74.917 54,76.292c31.792,1.208 48.042,-27.125 46.083,-55.042c-2.792,-38 -14.833,-63.25 -14,-138.292c10.375,8.25 18.5,7.667 25.5,3.292c18.708,-11.458 21.25,-30.583 20.958,-48.083c-0.833,-29.708 -16.792,-52.708 -38.417,-52.708Zm-867.583,284.792l-2.792,0.542l3.042,-29.167c4.792,0.542 4.5,17.083 -0.25,28.625Zm0.25,111.5l-2.792,-19.667c0.833,-5.792 3.375,-9.083 6.458,-9.625c1.125,6.042 0,17.875 -3.667,29.292Zm354.792,-185.583c5.333,-7.542 8.958,-14.833 11.208,-22.542l17.917,83.458l-14.583,-11.583l-20.417,-45.5c1.125,-1.083 3.917,-1.917 5.875,-3.833Zm223.875,-119.208l5.042,-0.542c0.292,2.708 -1.125,4.625 -5.042,5.167l0,-4.625Zm0,94.458l-1.375,-1.125l3.625,-1.625c1.125,1.625 0,2.458 -2.25,2.75Z" style="fill:#996f00;fill-rule:nonzero;"/><path d="M116.375,566.5c-17.5,3.292 -24.5,16.667 -21.708,48.708l6.75,59.75c3.333,29.833 -14.708,58.583 -38.667,59.417c-16.375,0.542 -24.208,-18 -22.542,-48.125c1.958,-35.208 8.958,-62.792 4.208,-129.625c-3.375,-49.625 -10.917,-80.708 -7.292,-110.667c3.083,-25.5 20.292,-39.125 35.583,-38.875c16.5,0.292 22.25,10.625 20.292,40.208l-4.625,47.625c-1.667,18.292 3.792,19.917 12.458,18.833c19.458,-2.458 23.917,-22.667 20.875,-46.458c-3.917,-31.625 -8.708,-63.5 9.917,-84.25c11.333,-13.083 52.375,-24.667 55.167,16.625c1.708,25.5 -13,76.25 -6.833,140.583c3.917,42.917 13.875,71.958 12.167,97.458c-1.958,30.375 -21.667,54.75 -46.208,54.75c-16.375,0 -19.75,-16.125 -17.5,-47.333l5.875,-52.583c2.25,-21.083 -3.625,-28.5 -17.917,-26.042Z" style="fill:#ddb652;fill-rule:nonzero;"/><path d="M225.125,371.333c6.708,-29.042 26.292,-38.125 43.5,-38.417c19.417,-0.292 30.208,12.375 35.25,40.333l39.542,158.5c8.292,34.75 3.792,72.5 -35.458,75.792c-15,1.375 -23.958,-12.667 -22.833,-42.125c0.833,-20.5 -1.125,-30.917 -13.708,-28.708c-11.625,2.167 -15,15.5 -14.167,32.542l1.125,28.917c1.125,26.917 -17.75,48.542 -39.958,49.375c-17.458,0.542 -21.5,-13.5 -19.292,-45l26,-231.208Zm39.958,37.125c-6.167,19.542 -9.208,57 -7.542,71.292c1.125,8.833 8.958,9.417 15,5.292c6.708,-4.375 7.25,-15.417 5.583,-35.25c-1.958,-23.833 -3.917,-41.333 -8,-42.708c-1.667,-0.542 -3.917,-0.792 -5.042,1.375Z" style="fill:#ddb652;fill-rule:nonzero;"/><path d="M351,354.25c-3.375,-29.583 8,-45.75 38.667,-56.208c17.792,-6.042 42.292,-11.667 57.708,-2.458c31.208,18.125 35.417,90.917 2.5,129l20.167,51.042c8.958,6.042 17.5,11.625 17.208,28.917c-0.542,24.5 -13.875,40.083 -33.708,40.917c-17.083,0.542 -21.833,-10.458 -26.333,-43.667l-5.042,-36.583c-1.125,-8.833 -10.792,-12.958 -13.583,-2.5c-3.625,13.75 3.625,43.458 5.333,62.75c2.208,27.292 -12.208,51.125 -37.833,52.5c-21.75,1.083 -24.25,-21.083 -20.917,-51.917l6.458,-83.792l-10.625,-88Zm53.667,0.833c-3.917,15.417 -3.917,40.208 0,48.708c2.792,6.333 10.625,3.292 14.542,-6.583c7,-18.417 6.167,-41.292 -1.667,-49.958c-5.333,-6.083 -10.625,-2.208 -12.875,7.833Z" style="fill:#ddb652;fill-rule:nonzero;"/><path d="M616.083,284.417l-28,174.458c-6.167,35.5 -20.875,58.75 -46.625,57.625c-17.208,-0.542 -23.667,-13.083 -27.875,-42.25l-30.125,-162.208c-4.458,-24.5 7.875,-42.917 28.333,-43.458c17.75,-0.542 23.375,11.958 22.833,43.208c-1.125,47.125 3.917,94.208 6.708,117.875c0.833,7.125 6.417,5.208 7.542,-1.125c4.5,-25.583 10.375,-75.917 6.708,-136.25c-1.667,-25.792 11.625,-42.25 33.667,-42.25c19.417,0 30.5,12.625 26.833,34.375Z" style="fill:#ddb652;fill-rule:nonzero;"/><path d="M621.708,284.417c-3.667,-25.042 8.917,-43.75 30.083,-45.958l52.917,-6.167c20.667,-2.5 26,7.833 26.833,30.375c0.833,20.917 -5.042,34.292 -20.458,32.083c-9.625,-1.375 -11.042,-9.5 -21.667,-9.5c-14.125,0 -17.792,14.167 -16.375,35.792c0.833,12.125 6.708,12.417 19.75,7.458c11.042,-4.417 19.167,-4.667 24.208,4.417c7.292,13.75 7,40.875 -2.792,50.25c-8.125,7.708 -15.833,-2.458 -26.458,-3c-11.625,-0.542 -12.458,6.583 -12.458,20.875c0,12.667 7.25,16.25 18.333,13.5c11.625,-3.042 15.833,-15.958 27.292,-17.333c16.542,-1.917 20.458,16.208 17.917,42.833c-3.333,32.583 -23.208,44.708 -58.792,49.667l-18.333,2.458c-27.75,3.875 -43.125,-10.417 -42.292,-41.667l8.417,-73.667l-6.125,-92.417Z" style="fill:#ddb652;fill-rule:nonzero;"/><path d="M750.167,286.875c2.792,-40.417 29.458,-65.167 63.458,-63.125c32.333,1.917 46.167,23 46.75,55.958c0.542,22.208 -7.583,32.083 -22,30.458c-12.75,-1.667 -17.5,-11.292 -19.167,-24.917c-1.125,-8.958 -15.25,-10.042 -17.75,0.833c-3.667,16.083 10.5,32.292 28.667,44.917c28.292,19.667 40.333,42.792 40.333,78.292c0,38.833 -21.208,67.708 -61.583,67.708c-39.25,0 -59.833,-37.208 -60.667,-67.417c-0.542,-23.667 13.583,-42.667 31.625,-41.833c10.25,0.542 15.875,6.042 17.958,20.375c1.958,13.75 9.542,18.167 14.583,16.208c9.083,-3.583 4.875,-25.042 -14.833,-43.458c-27.083,-25.208 -49.875,-39.25 -47.375,-74Z" style="fill:#ddb652;fill-rule:nonzero;"/><path d="M875.042,253.875c1.667,-21.333 8.958,-30.417 25.875,-28.75c24.542,2.458 40.917,3.583 77.125,4.125c18.333,0.292 25.875,10.875 26.458,38.5c0.542,23.958 -8.958,37.458 -18.208,36.083c-8.667,-1.375 -10.333,-12.125 -16.5,-19.125c-6.75,-8.125 -10.958,-0.292 -11.208,15.833c-1.417,63.917 0,77.417 13.167,137.167c6.708,30.375 -6.167,52.542 -27.917,51.458c-26.792,-1.375 -39.125,-23.833 -34.625,-62.667c5.625,-50.5 9.25,-73.333 6.167,-130.375c-0.833,-14.708 -8.667,-17.75 -16.125,-11.417c-4.75,4.125 -7.833,7.292 -13.042,5.792c-10.333,-3.333 -12.875,-18.625 -11.167,-36.625Z" style="fill:#ddb652;fill-rule:nonzero;"/><path d="M153.042,727.5c26.208,47.125 50.833,80.75 85.667,107.625c37.583,-40.792 74.042,-69.958 102.792,-84.958c21.917,18 36.208,24.458 58.667,22.833c24.25,-1.667 53.375,-18.167 80.458,-26.708c-16.208,-1.083 -30.5,-1.375 -42.542,-8.5c15.417,1.083 42.208,2.75 64.708,-12.25c19.167,-4.917 43.417,-9.167 66.958,-20.75l-9.667,-6.292c23,2.458 47.083,-3.292 78.042,-10.583l-11.333,-8.25c19.958,3.292 33.958,1.917 63.792,-8l-10.25,-8.25c16.375,4.667 21.708,4.125 36.958,0.542l91.583,-23.792l-71.167,4.125l-7.25,-14.833l106.25,-26.625l-60.75,6.042l9.083,-16.625l89.708,-27.667l-98.792,11.458l-22.458,-13.375l67.125,-20.75l-86.25,10.583l-12.042,-11.583l59.917,-24.375l-86.917,13.042c-18.333,3.042 -34.875,11.292 -45.25,20.917l8.708,-20.917l-26.792,10.458c-20.125,5.625 -35.667,13.875 -47.292,26.458l10.5,-21.875l-27.75,10.625c-16.917,6.042 -30.75,15.375 -41.25,27.917l-4.792,-18.042l-34,17.5c-16.958,7.958 -28.583,16.625 -33.042,29.292l1.375,-20.208l-31.792,18.542c-15.958,9.083 -23.792,15.667 -26.833,28.583l1.667,-21.167c-49.875,30.708 -70.167,57.042 -68.208,110.917c-31.208,18.292 -52.708,33.833 -81.125,58.333c-21.917,-21.75 -38.833,-42.25 -55.208,-76.042c-10.792,9.75 -22.833,15.25 -41.208,16.625Z" style="fill:#996f00;fill-rule:nonzero;"/><path d="M519.5,879.792c-8.542,-59.75 31.5,-100.417 85.25,-102.875c46.75,-2.208 80.5,19.958 95.042,55.458c-49.417,32.667 -102.042,46.833 -180.292,47.417Z" style="fill:#ddb652;fill-rule:nonzero;"/><path d="M386.333,793.542l61.042,-7.125l69.833,38.833l-8.25,15.833l-122.625,-47.542Z" style="fill:#ddb652;fill-rule:nonzero;"/><path d="M360.917,843l143.833,13.75l0,23c-57.958,-2.75 -97.583,-14.708 -143.833,-36.75Z" style="fill:#ddb652;fill-rule:nonzero;"/><path d="M485.167,767.083l22.167,-10.583l29,32.042l-14.875,15.292l-36.292,-36.75Z" style="fill:#ddb652;fill-rule:nonzero;"/><path d="M532.125,743.542l24.625,-9.333l16.375,36.833l-16.375,8.25l-24.625,-35.75Z" style="fill:#ddb652;fill-rule:nonzero;"/><path d="M587.25,720.625l25.458,-3.292l-2.5,44.958l-17.375,1.375l-5.583,-43.042Z" style="fill:#ddb652;fill-rule:nonzero;"/><path d="M638.458,704.792l32.625,-8.5l-22.458,72.167l-18.583,-6.167l8.417,-57.5Z" style="fill:#ddb652;fill-rule:nonzero;"/><path d="M720.083,682.125l53.75,-12.375l-83.542,116.208l-19.167,-6.583l48.958,-97.25Z" style="fill:#ddb652;fill-rule:nonzero;"/><path d="M700.083,804.667l133.792,-114c-25.75,48.792 -66.083,99 -124.167,136.208l-9.625,-22.208Z" style="fill:#ddb652;fill-rule:nonzero;"/><path d="M343.708,725.542c-1.958,-44.792 6.458,-62.958 43.208,-82.625c4.458,43.625 1.958,54.625 -43.208,82.625Z" style="fill:#ddb652;fill-rule:nonzero;"/><path d="M407.167,694.083c5.042,-43.042 7.292,-63.542 44.375,-81.917c4.5,46.042 -1.958,57.583 -44.375,81.917Z" style="fill:#ddb652;fill-rule:nonzero;"/><path d="M468.375,660.958c3.625,-41.333 12.292,-58.125 49.167,-74.5c2.792,39.458 -6.583,57 -49.167,74.5Z" style="fill:#ddb652;fill-rule:nonzero;"/><path d="M523.958,638.25c7,-38.583 21.708,-59.208 54.042,-70.5c-1.958,36.458 -13.292,58.167 -54.042,70.5Z" style="fill:#ddb652;fill-rule:nonzero;"/><path d="M585.583,617.958c7.25,-38.333 21.958,-55 54.583,-63.25c-1.958,33.375 -16.375,54.708 -54.583,63.25Z" style="fill:#ddb652;fill-rule:nonzero;"/><path d="M644.625,598.958c13.875,-36.292 26.75,-48.667 52.917,-56.667c-1.958,29.708 -15.25,46.625 -52.917,56.667Z" style="fill:#ddb652;fill-rule:nonzero;"/><path d="M695.042,596.5c29.25,-23.125 45.208,-26.417 72.167,-18.833c-12.583,24.083 -35.083,33.417 -72.167,18.833Z" style="fill:#ddb652;fill-rule:nonzero;"/><path d="M683.417,611.375c26.042,1.917 33.583,13.208 45.083,31.792c-32.333,6.583 -48.708,-6.625 -73.375,-31.792c7.833,-2.208 15.417,-1.125 28.292,0Z" style="fill:#ddb652;fill-rule:nonzero;"/><path d="M618.042,625.125c26.625,-2.5 37.125,13.708 51.667,33.667c-32.917,6.833 -52.792,-2.792 -86.5,-33.667c10.5,-2.75 20.708,-1.125 34.833,0Z" style="fill:#ddb652;fill-rule:nonzero;"/><path d="M553.917,646.458c25.208,-2.208 30.833,10.708 48.042,31.5c-29,6.333 -44.417,-1.625 -72.125,-24.625c6.458,-4.375 12.917,-5.792 24.083,-6.875Z" style="fill:#ddb652;fill-rule:nonzero;"/><path d="M503.083,669.75c26.208,0 31.542,12.083 51.958,31.75c-36.375,8.542 -54.458,1.917 -87.792,-23.542c8.958,-6.583 18.333,-8.208 35.833,-8.208Z" style="fill:#ddb652;fill-rule:nonzero;"/><path d="M450.458,694.083c28,-1.625 36.667,13.208 53.042,27.917c-36.25,8.542 -56.708,4.125 -86.792,-18.583c9.208,-6.292 18.333,-8.208 33.75,-9.333Z" style="fill:#ddb652;fill-rule:nonzero;"/><path d="M388.875,724.75c28,-2.458 36.667,11.125 55.667,24.875c-37.333,17.167 -61.292,12.917 -89.75,-9.917c7.833,-6.708 16.5,-11.958 34.083,-14.958Z" style="fill:#ddb652;fill-rule:nonzero;"/></svg>